<mxfile host="Electron" agent="Mozilla/5.0 (Macintosh; Intel Mac OS X 10_15_7) AppleWebKit/537.36 (KHTML, like Gecko) draw.io/26.0.9 Chrome/128.0.6613.186 Electron/32.2.5 Safari/537.36" version="26.0.9">
  <diagram id="C5RBs43oDa-KdzZeNtuy" name="Page-1">
    <mxGraphModel dx="954" dy="1765" grid="1" gridSize="10" guides="1" tooltips="1" connect="1" arrows="1" fold="1" page="1" pageScale="1" pageWidth="827" pageHeight="1169" math="0" shadow="0">
      <root>
        <mxCell id="WIyWlLk6GJQsqaUBKTNV-0" />
        <mxCell id="WIyWlLk6GJQsqaUBKTNV-1" parent="WIyWlLk6GJQsqaUBKTNV-0" />
        <mxCell id="dALMtpVNLaYDN4EMHYpN-0" value="RepositoryBase" style="swimlane;fontStyle=2;align=center;verticalAlign=top;childLayout=stackLayout;horizontal=1;startSize=26;horizontalStack=0;resizeParent=1;resizeLast=0;collapsible=1;marginBottom=0;rounded=0;shadow=0;strokeWidth=1;" parent="WIyWlLk6GJQsqaUBKTNV-1" vertex="1">
          <mxGeometry x="370" y="180" width="160" height="284" as="geometry">
            <mxRectangle x="230" y="140" width="160" height="26" as="alternateBounds" />
          </mxGeometry>
        </mxCell>
        <mxCell id="dALMtpVNLaYDN4EMHYpN-1" value="_dbContext" style="text;align=left;verticalAlign=top;spacingLeft=4;spacingRight=4;overflow=hidden;rotatable=0;points=[[0,0.5],[1,0.5]];portConstraint=eastwest;" parent="dALMtpVNLaYDN4EMHYpN-0" vertex="1">
          <mxGeometry y="26" width="160" height="26" as="geometry" />
        </mxCell>
        <mxCell id="dALMtpVNLaYDN4EMHYpN-2" value="_unitOfWork" style="text;align=left;verticalAlign=top;spacingLeft=4;spacingRight=4;overflow=hidden;rotatable=0;points=[[0,0.5],[1,0.5]];portConstraint=eastwest;rounded=0;shadow=0;html=0;" parent="dALMtpVNLaYDN4EMHYpN-0" vertex="1">
          <mxGeometry y="52" width="160" height="26" as="geometry" />
        </mxCell>
        <mxCell id="dALMtpVNLaYDN4EMHYpN-3" value="" style="line;html=1;strokeWidth=1;align=left;verticalAlign=middle;spacingTop=-1;spacingLeft=3;spacingRight=3;rotatable=0;labelPosition=right;points=[];portConstraint=eastwest;" parent="dALMtpVNLaYDN4EMHYpN-0" vertex="1">
          <mxGeometry y="78" width="160" height="8" as="geometry" />
        </mxCell>
        <mxCell id="dALMtpVNLaYDN4EMHYpN-4" value="FindAll() // deleted&#xa;FindByCondition() // deleted&#xa;GetByIdAsync() // deleted&#xa;BeginTransactionAsync()&#xa;EndTransactionAsync()&#xa;RollbackTransactionAsync()&#xa;CreateAsync()&#xa;CreateListAsync()&#xa;UpdateAsync()&#xa;UpdateListAsync()&#xa;DeleteAsync()&#xa;DeleteListAsync()&#xa;SaveChangesAsync()" style="text;align=left;verticalAlign=top;spacingLeft=4;spacingRight=4;overflow=hidden;rotatable=0;points=[[0,0.5],[1,0.5]];portConstraint=eastwest;" parent="dALMtpVNLaYDN4EMHYpN-0" vertex="1">
          <mxGeometry y="86" width="160" height="198" as="geometry" />
        </mxCell>
        <mxCell id="B2tUxJbIP3MN7gEOKANm-0" value="ICustomerRepository" style="swimlane;fontStyle=2;align=center;verticalAlign=top;childLayout=stackLayout;horizontal=1;startSize=26;horizontalStack=0;resizeParent=1;resizeLast=0;collapsible=1;marginBottom=0;rounded=0;shadow=0;strokeWidth=1;" vertex="1" parent="WIyWlLk6GJQsqaUBKTNV-1">
          <mxGeometry x="580" y="-40" width="196" height="78" as="geometry">
            <mxRectangle x="230" y="140" width="160" height="26" as="alternateBounds" />
          </mxGeometry>
        </mxCell>
        <mxCell id="B2tUxJbIP3MN7gEOKANm-3" value="" style="line;html=1;strokeWidth=1;align=left;verticalAlign=middle;spacingTop=-1;spacingLeft=3;spacingRight=3;rotatable=0;labelPosition=right;points=[];portConstraint=eastwest;" vertex="1" parent="B2tUxJbIP3MN7gEOKANm-0">
          <mxGeometry y="26" width="196" height="8" as="geometry" />
        </mxCell>
        <mxCell id="B2tUxJbIP3MN7gEOKANm-4" value="GetCustomerByUsernameAsync()" style="text;align=left;verticalAlign=top;spacingLeft=4;spacingRight=4;overflow=hidden;rotatable=0;points=[[0,0.5],[1,0.5]];portConstraint=eastwest;" vertex="1" parent="B2tUxJbIP3MN7gEOKANm-0">
          <mxGeometry y="34" width="196" height="44" as="geometry" />
        </mxCell>
        <mxCell id="B2tUxJbIP3MN7gEOKANm-6" value="IRepositoryBaseAsync" style="swimlane;fontStyle=2;align=center;verticalAlign=top;childLayout=stackLayout;horizontal=1;startSize=26;horizontalStack=0;resizeParent=1;resizeLast=0;collapsible=1;marginBottom=0;rounded=0;shadow=0;strokeWidth=1;" vertex="1" parent="WIyWlLk6GJQsqaUBKTNV-1">
          <mxGeometry x="150" y="-70" width="160" height="190" as="geometry">
            <mxRectangle x="230" y="140" width="160" height="26" as="alternateBounds" />
          </mxGeometry>
        </mxCell>
        <mxCell id="B2tUxJbIP3MN7gEOKANm-9" value="" style="line;html=1;strokeWidth=1;align=left;verticalAlign=middle;spacingTop=-1;spacingLeft=3;spacingRight=3;rotatable=0;labelPosition=right;points=[];portConstraint=eastwest;" vertex="1" parent="B2tUxJbIP3MN7gEOKANm-6">
          <mxGeometry y="26" width="160" height="8" as="geometry" />
        </mxCell>
        <mxCell id="B2tUxJbIP3MN7gEOKANm-10" value="BeginTransactionAsync()&#xa;EndTransactionAsync()&#xa;RollbackTransactionAsync()&#xa;CreateAsync()&#xa;CreateListAsync()&#xa;UpdateAsync()&#xa;UpdateListAsync()&#xa;DeleteAsync()&#xa;DeleteListAsync()&#xa;SaveChangesAsync()" style="text;align=left;verticalAlign=top;spacingLeft=4;spacingRight=4;overflow=hidden;rotatable=0;points=[[0,0.5],[1,0.5]];portConstraint=eastwest;" vertex="1" parent="B2tUxJbIP3MN7gEOKANm-6">
          <mxGeometry y="34" width="160" height="156" as="geometry" />
        </mxCell>
        <mxCell id="B2tUxJbIP3MN7gEOKANm-12" value="" style="endArrow=block;html=1;rounded=0;exitX=0;exitY=0.5;exitDx=0;exitDy=0;entryX=0.491;entryY=1;entryDx=0;entryDy=0;entryPerimeter=0;endFill=0;dashed=1;" edge="1" parent="WIyWlLk6GJQsqaUBKTNV-1" source="dALMtpVNLaYDN4EMHYpN-4" target="B2tUxJbIP3MN7gEOKANm-10">
          <mxGeometry width="50" height="50" relative="1" as="geometry">
            <mxPoint x="491" y="103" as="sourcePoint" />
            <mxPoint x="490" y="60" as="targetPoint" />
          </mxGeometry>
        </mxCell>
        <mxCell id="B2tUxJbIP3MN7gEOKANm-13" value="IRepositoryQueryBase" style="swimlane;fontStyle=2;align=center;verticalAlign=top;childLayout=stackLayout;horizontal=1;startSize=26;horizontalStack=0;resizeParent=1;resizeLast=0;collapsible=1;marginBottom=0;rounded=0;shadow=0;strokeWidth=1;" vertex="1" parent="WIyWlLk6GJQsqaUBKTNV-1">
          <mxGeometry x="390" y="-240" width="140" height="90" as="geometry">
            <mxRectangle x="230" y="140" width="160" height="26" as="alternateBounds" />
          </mxGeometry>
        </mxCell>
        <mxCell id="B2tUxJbIP3MN7gEOKANm-14" value="" style="line;html=1;strokeWidth=1;align=left;verticalAlign=middle;spacingTop=-1;spacingLeft=3;spacingRight=3;rotatable=0;labelPosition=right;points=[];portConstraint=eastwest;" vertex="1" parent="B2tUxJbIP3MN7gEOKANm-13">
          <mxGeometry y="26" width="140" height="8" as="geometry" />
        </mxCell>
        <mxCell id="B2tUxJbIP3MN7gEOKANm-15" value="FindAll()&#xa;FindByCondition()&#xa;GetByIdAsync()" style="text;align=left;verticalAlign=top;spacingLeft=4;spacingRight=4;overflow=hidden;rotatable=0;points=[[0,0.5],[1,0.5]];portConstraint=eastwest;" vertex="1" parent="B2tUxJbIP3MN7gEOKANm-13">
          <mxGeometry y="34" width="140" height="56" as="geometry" />
        </mxCell>
        <mxCell id="B2tUxJbIP3MN7gEOKANm-16" value="" style="endArrow=block;html=1;rounded=0;exitX=0.5;exitY=0;exitDx=0;exitDy=0;entryX=0.425;entryY=1;entryDx=0;entryDy=0;entryPerimeter=0;endFill=0;dashed=1;" edge="1" parent="WIyWlLk6GJQsqaUBKTNV-1" source="B2tUxJbIP3MN7gEOKANm-6" target="B2tUxJbIP3MN7gEOKANm-15">
          <mxGeometry width="50" height="50" relative="1" as="geometry">
            <mxPoint x="460" y="-87" as="sourcePoint" />
            <mxPoint x="460" y="-150" as="targetPoint" />
          </mxGeometry>
        </mxCell>
        <mxCell id="B2tUxJbIP3MN7gEOKANm-17" value="CustomerRepository&#xa;(Only Query)" style="swimlane;fontStyle=2;align=center;verticalAlign=top;childLayout=stackLayout;horizontal=1;startSize=40;horizontalStack=0;resizeParent=1;resizeLast=0;collapsible=1;marginBottom=0;rounded=0;shadow=0;strokeWidth=1;" vertex="1" parent="WIyWlLk6GJQsqaUBKTNV-1">
          <mxGeometry x="600" y="200" width="190" height="92" as="geometry">
            <mxRectangle x="230" y="140" width="160" height="26" as="alternateBounds" />
          </mxGeometry>
        </mxCell>
        <mxCell id="B2tUxJbIP3MN7gEOKANm-18" value="" style="line;html=1;strokeWidth=1;align=left;verticalAlign=middle;spacingTop=-1;spacingLeft=3;spacingRight=3;rotatable=0;labelPosition=right;points=[];portConstraint=eastwest;" vertex="1" parent="B2tUxJbIP3MN7gEOKANm-17">
          <mxGeometry y="40" width="190" height="8" as="geometry" />
        </mxCell>
        <mxCell id="B2tUxJbIP3MN7gEOKANm-19" value="GetCustomerByUsernameAsync()" style="text;align=left;verticalAlign=top;spacingLeft=4;spacingRight=4;overflow=hidden;rotatable=0;points=[[0,0.5],[1,0.5]];portConstraint=eastwest;" vertex="1" parent="B2tUxJbIP3MN7gEOKANm-17">
          <mxGeometry y="48" width="190" height="44" as="geometry" />
        </mxCell>
        <mxCell id="B2tUxJbIP3MN7gEOKANm-20" value="" style="endArrow=block;html=1;rounded=0;exitX=0.5;exitY=0;exitDx=0;exitDy=0;entryX=0.539;entryY=0.982;entryDx=0;entryDy=0;endFill=0;dashed=1;entryPerimeter=0;" edge="1" parent="WIyWlLk6GJQsqaUBKTNV-1" source="B2tUxJbIP3MN7gEOKANm-0" target="B2tUxJbIP3MN7gEOKANm-15">
          <mxGeometry width="50" height="50" relative="1" as="geometry">
            <mxPoint x="345" y="-101" as="sourcePoint" />
            <mxPoint x="346" y="-135" as="targetPoint" />
          </mxGeometry>
        </mxCell>
        <mxCell id="B2tUxJbIP3MN7gEOKANm-21" value="" style="endArrow=block;html=1;rounded=0;exitX=0;exitY=0.5;exitDx=0;exitDy=0;entryX=0.789;entryY=1.018;entryDx=0;entryDy=0;endFill=0;entryPerimeter=0;" edge="1" parent="WIyWlLk6GJQsqaUBKTNV-1" source="B2tUxJbIP3MN7gEOKANm-19" target="B2tUxJbIP3MN7gEOKANm-25">
          <mxGeometry width="50" height="50" relative="1" as="geometry">
            <mxPoint x="649" y="215" as="sourcePoint" />
            <mxPoint x="480" y="130" as="targetPoint" />
          </mxGeometry>
        </mxCell>
        <mxCell id="B2tUxJbIP3MN7gEOKANm-22" value="" style="endArrow=block;html=1;rounded=0;exitX=0.441;exitY=-0.038;exitDx=0;exitDy=0;entryX=0.523;entryY=1.023;entryDx=0;entryDy=0;endFill=0;dashed=1;entryPerimeter=0;exitPerimeter=0;" edge="1" parent="WIyWlLk6GJQsqaUBKTNV-1" source="B2tUxJbIP3MN7gEOKANm-17" target="B2tUxJbIP3MN7gEOKANm-4">
          <mxGeometry width="50" height="50" relative="1" as="geometry">
            <mxPoint x="671" y="50" as="sourcePoint" />
            <mxPoint x="580" y="50" as="targetPoint" />
          </mxGeometry>
        </mxCell>
        <mxCell id="B2tUxJbIP3MN7gEOKANm-23" value="RepositoryQueryBase" style="swimlane;fontStyle=2;align=center;verticalAlign=top;childLayout=stackLayout;horizontal=1;startSize=26;horizontalStack=0;resizeParent=1;resizeLast=0;collapsible=1;marginBottom=0;rounded=0;shadow=0;strokeWidth=1;" vertex="1" parent="WIyWlLk6GJQsqaUBKTNV-1">
          <mxGeometry x="390" y="-40" width="140" height="90" as="geometry">
            <mxRectangle x="230" y="140" width="160" height="26" as="alternateBounds" />
          </mxGeometry>
        </mxCell>
        <mxCell id="B2tUxJbIP3MN7gEOKANm-24" value="" style="line;html=1;strokeWidth=1;align=left;verticalAlign=middle;spacingTop=-1;spacingLeft=3;spacingRight=3;rotatable=0;labelPosition=right;points=[];portConstraint=eastwest;" vertex="1" parent="B2tUxJbIP3MN7gEOKANm-23">
          <mxGeometry y="26" width="140" height="8" as="geometry" />
        </mxCell>
        <mxCell id="B2tUxJbIP3MN7gEOKANm-25" value="FindAll()&#xa;FindByCondition()&#xa;GetByIdAsync()" style="text;align=left;verticalAlign=top;spacingLeft=4;spacingRight=4;overflow=hidden;rotatable=0;points=[[0,0.5],[1,0.5]];portConstraint=eastwest;" vertex="1" parent="B2tUxJbIP3MN7gEOKANm-23">
          <mxGeometry y="34" width="140" height="56" as="geometry" />
        </mxCell>
        <mxCell id="B2tUxJbIP3MN7gEOKANm-26" value="" style="endArrow=block;html=1;rounded=0;exitX=0.5;exitY=0;exitDx=0;exitDy=0;entryX=0.489;entryY=1.036;entryDx=0;entryDy=0;endFill=0;dashed=1;entryPerimeter=0;" edge="1" parent="WIyWlLk6GJQsqaUBKTNV-1" source="B2tUxJbIP3MN7gEOKANm-23" target="B2tUxJbIP3MN7gEOKANm-15">
          <mxGeometry width="50" height="50" relative="1" as="geometry">
            <mxPoint x="751.5" y="-130" as="sourcePoint" />
            <mxPoint x="628.5" y="-313" as="targetPoint" />
          </mxGeometry>
        </mxCell>
        <mxCell id="B2tUxJbIP3MN7gEOKANm-27" value="" style="endArrow=block;html=1;rounded=0;entryX=0.432;entryY=0.982;entryDx=0;entryDy=0;entryPerimeter=0;endFill=0;dashed=1;" edge="1" parent="WIyWlLk6GJQsqaUBKTNV-1" source="dALMtpVNLaYDN4EMHYpN-0" target="B2tUxJbIP3MN7gEOKANm-25">
          <mxGeometry width="50" height="50" relative="1" as="geometry">
            <mxPoint x="141" y="190" as="sourcePoint" />
            <mxPoint x="140" y="120" as="targetPoint" />
          </mxGeometry>
        </mxCell>
      </root>
    </mxGraphModel>
  </diagram>
</mxfile>
